<mxfile host="app.diagrams.net" agent="Mozilla/5.0 (Windows NT 10.0; Win64; x64) AppleWebKit/537.36 (KHTML, like Gecko) Chrome/135.0.0.0 Safari/537.36" version="26.2.14">
  <diagram name="PÃ¡gina-1" id="XqcYxNgyNjFQ2hBGpFSJ">
    <mxGraphModel dx="1665" dy="1578" grid="1" gridSize="10" guides="1" tooltips="1" connect="1" arrows="1" fold="1" page="1" pageScale="1" pageWidth="827" pageHeight="1169" math="0" shadow="0">
      <root>
        <mxCell id="0" />
        <mxCell id="1" parent="0" />
        <mxCell id="j0QYSwoIqu1QwtUw-Y4--51" style="edgeStyle=orthogonalEdgeStyle;rounded=0;orthogonalLoop=1;jettySize=auto;html=1;exitX=1;exitY=0.5;exitDx=0;exitDy=0;" parent="1" source="oGvwPSa7rUXXweESWLWe-1" target="j0QYSwoIqu1QwtUw-Y4--47" edge="1">
          <mxGeometry relative="1" as="geometry" />
        </mxCell>
        <mxCell id="j0QYSwoIqu1QwtUw-Y4--91" style="edgeStyle=orthogonalEdgeStyle;rounded=0;orthogonalLoop=1;jettySize=auto;html=1;exitX=1;exitY=0.5;exitDx=0;exitDy=0;entryX=0.5;entryY=1;entryDx=0;entryDy=0;" parent="1" source="oGvwPSa7rUXXweESWLWe-1" target="j0QYSwoIqu1QwtUw-Y4--86" edge="1">
          <mxGeometry relative="1" as="geometry" />
        </mxCell>
        <mxCell id="oGvwPSa7rUXXweESWLWe-1" value="Cliente" style="rounded=1;arcSize=10;whiteSpace=wrap;html=1;align=center;" parent="1" vertex="1">
          <mxGeometry x="10" y="330" width="100" height="40" as="geometry" />
        </mxCell>
        <mxCell id="j0QYSwoIqu1QwtUw-Y4--83" style="edgeStyle=orthogonalEdgeStyle;rounded=0;orthogonalLoop=1;jettySize=auto;html=1;exitX=0;exitY=0.5;exitDx=0;exitDy=0;entryX=0;entryY=0.5;entryDx=0;entryDy=0;" parent="1" target="j0QYSwoIqu1QwtUw-Y4--80" edge="1">
          <mxGeometry relative="1" as="geometry">
            <mxPoint x="444" y="770" as="targetPoint" />
            <mxPoint x="444.0000000000073" y="635" as="sourcePoint" />
            <Array as="points">
              <mxPoint x="444" y="711" />
              <mxPoint x="440" y="711" />
              <mxPoint x="440" y="805" />
            </Array>
          </mxGeometry>
        </mxCell>
        <mxCell id="oGvwPSa7rUXXweESWLWe-2" value="Editorial" style="rounded=1;arcSize=10;whiteSpace=wrap;html=1;align=center;" parent="1" vertex="1">
          <mxGeometry x="360" y="595" width="100" height="40" as="geometry" />
        </mxCell>
        <mxCell id="j0QYSwoIqu1QwtUw-Y4--65" style="edgeStyle=orthogonalEdgeStyle;rounded=0;orthogonalLoop=1;jettySize=auto;html=1;entryX=0;entryY=0.5;entryDx=0;entryDy=0;" parent="1" source="oGvwPSa7rUXXweESWLWe-3" target="j0QYSwoIqu1QwtUw-Y4--64" edge="1">
          <mxGeometry relative="1" as="geometry" />
        </mxCell>
        <mxCell id="oGvwPSa7rUXXweESWLWe-3" value="Pedido" style="shape=ext;margin=3;double=1;whiteSpace=wrap;html=1;align=center;" parent="1" vertex="1">
          <mxGeometry x="320" y="20" width="100" height="40" as="geometry" />
        </mxCell>
        <mxCell id="j0QYSwoIqu1QwtUw-Y4--5" style="edgeStyle=orthogonalEdgeStyle;rounded=0;orthogonalLoop=1;jettySize=auto;html=1;entryX=0;entryY=0.5;entryDx=0;entryDy=0;" parent="1" source="oGvwPSa7rUXXweESWLWe-4" target="j0QYSwoIqu1QwtUw-Y4--1" edge="1">
          <mxGeometry relative="1" as="geometry" />
        </mxCell>
        <mxCell id="j0QYSwoIqu1QwtUw-Y4--7" style="edgeStyle=orthogonalEdgeStyle;rounded=0;orthogonalLoop=1;jettySize=auto;html=1;entryX=0.5;entryY=0;entryDx=0;entryDy=0;" parent="1" source="oGvwPSa7rUXXweESWLWe-4" target="oGvwPSa7rUXXweESWLWe-20" edge="1">
          <mxGeometry relative="1" as="geometry" />
        </mxCell>
        <mxCell id="oGvwPSa7rUXXweESWLWe-4" value="Libro" style="shape=ext;margin=3;double=1;whiteSpace=wrap;html=1;align=center;" parent="1" vertex="1">
          <mxGeometry x="350" y="320" width="100" height="30" as="geometry" />
        </mxCell>
        <mxCell id="j0QYSwoIqu1QwtUw-Y4--68" value="" style="edgeStyle=orthogonalEdgeStyle;rounded=0;orthogonalLoop=1;jettySize=auto;html=1;" parent="1" source="oGvwPSa7rUXXweESWLWe-5" target="j0QYSwoIqu1QwtUw-Y4--62" edge="1">
          <mxGeometry relative="1" as="geometry" />
        </mxCell>
        <mxCell id="oGvwPSa7rUXXweESWLWe-5" value="Inventario" style="shape=ext;margin=3;double=1;whiteSpace=wrap;html=1;align=center;" parent="1" vertex="1">
          <mxGeometry x="720" y="320" width="100" height="40" as="geometry" />
        </mxCell>
        <mxCell id="oGvwPSa7rUXXweESWLWe-9" style="edgeStyle=orthogonalEdgeStyle;rounded=0;orthogonalLoop=1;jettySize=auto;html=1;" parent="1" edge="1">
          <mxGeometry relative="1" as="geometry">
            <mxPoint x="280" y="49.5" as="sourcePoint" />
            <mxPoint x="320" y="50" as="targetPoint" />
          </mxGeometry>
        </mxCell>
        <mxCell id="oGvwPSa7rUXXweESWLWe-14" style="edgeStyle=orthogonalEdgeStyle;rounded=0;orthogonalLoop=1;jettySize=auto;html=1;" parent="1" source="oGvwPSa7rUXXweESWLWe-6" edge="1">
          <mxGeometry relative="1" as="geometry">
            <mxPoint x="280" y="50" as="targetPoint" />
          </mxGeometry>
        </mxCell>
        <mxCell id="j0QYSwoIqu1QwtUw-Y4--12" style="edgeStyle=orthogonalEdgeStyle;rounded=0;orthogonalLoop=1;jettySize=auto;html=1;exitX=0.5;exitY=1;exitDx=0;exitDy=0;" parent="1" source="oGvwPSa7rUXXweESWLWe-6" edge="1">
          <mxGeometry relative="1" as="geometry">
            <mxPoint x="60" y="330" as="targetPoint" />
          </mxGeometry>
        </mxCell>
        <mxCell id="oGvwPSa7rUXXweESWLWe-6" value="Realiza" style="shape=rhombus;perimeter=rhombusPerimeter;whiteSpace=wrap;html=1;align=center;" parent="1" vertex="1">
          <mxGeometry x="-10" y="20" width="120" height="60" as="geometry" />
        </mxCell>
        <mxCell id="j0QYSwoIqu1QwtUw-Y4--88" style="edgeStyle=orthogonalEdgeStyle;rounded=0;orthogonalLoop=1;jettySize=auto;html=1;exitX=0.5;exitY=1;exitDx=0;exitDy=0;" parent="1" source="j0QYSwoIqu1QwtUw-Y4--86" edge="1">
          <mxGeometry relative="1" as="geometry">
            <mxPoint x="125" y="320" as="targetPoint" />
            <Array as="points">
              <mxPoint x="125" y="310" />
            </Array>
          </mxGeometry>
        </mxCell>
        <mxCell id="oGvwPSa7rUXXweESWLWe-10" value="(1.1)" style="text;html=1;align=center;verticalAlign=middle;whiteSpace=wrap;rounded=0;" parent="1" vertex="1">
          <mxGeometry x="60" y="260" width="60" height="30" as="geometry" />
        </mxCell>
        <mxCell id="oGvwPSa7rUXXweESWLWe-11" value="(0.N)" style="text;html=1;align=center;verticalAlign=middle;whiteSpace=wrap;rounded=0;" parent="1" vertex="1">
          <mxGeometry x="210" y="10" width="60" height="30" as="geometry" />
        </mxCell>
        <mxCell id="oGvwPSa7rUXXweESWLWe-17" style="edgeStyle=orthogonalEdgeStyle;rounded=0;orthogonalLoop=1;jettySize=auto;html=1;" parent="1" edge="1">
          <mxGeometry relative="1" as="geometry">
            <mxPoint x="400" y="320" as="targetPoint" />
            <mxPoint x="400" y="260" as="sourcePoint" />
          </mxGeometry>
        </mxCell>
        <mxCell id="oGvwPSa7rUXXweESWLWe-16" style="edgeStyle=orthogonalEdgeStyle;rounded=0;orthogonalLoop=1;jettySize=auto;html=1;entryX=0.7;entryY=0.75;entryDx=0;entryDy=0;entryPerimeter=0;" parent="1" target="oGvwPSa7rUXXweESWLWe-3" edge="1">
          <mxGeometry relative="1" as="geometry">
            <mxPoint x="400" y="200" as="sourcePoint" />
          </mxGeometry>
        </mxCell>
        <mxCell id="oGvwPSa7rUXXweESWLWe-18" value="(1.1)" style="text;html=1;align=center;verticalAlign=middle;whiteSpace=wrap;rounded=0;" parent="1" vertex="1">
          <mxGeometry x="384" y="70" width="60" height="20" as="geometry" />
        </mxCell>
        <mxCell id="oGvwPSa7rUXXweESWLWe-19" value="(1.N)" style="text;html=1;align=center;verticalAlign=middle;whiteSpace=wrap;rounded=0;" parent="1" vertex="1">
          <mxGeometry x="410" y="260" width="60" height="30" as="geometry" />
        </mxCell>
        <mxCell id="j0QYSwoIqu1QwtUw-Y4--8" value="" style="edgeStyle=orthogonalEdgeStyle;rounded=0;orthogonalLoop=1;jettySize=auto;html=1;" parent="1" target="oGvwPSa7rUXXweESWLWe-2" edge="1">
          <mxGeometry relative="1" as="geometry">
            <mxPoint x="420" y="535" as="sourcePoint" />
          </mxGeometry>
        </mxCell>
        <mxCell id="oGvwPSa7rUXXweESWLWe-20" value="Pertenece" style="shape=rhombus;perimeter=rhombusPerimeter;whiteSpace=wrap;html=1;align=center;" parent="1" vertex="1">
          <mxGeometry x="360" y="480" width="120" height="60" as="geometry" />
        </mxCell>
        <mxCell id="oGvwPSa7rUXXweESWLWe-23" value="(1.N)" style="text;html=1;align=center;verticalAlign=middle;whiteSpace=wrap;rounded=0;" parent="1" vertex="1">
          <mxGeometry x="330" y="360" width="60" height="30" as="geometry" />
        </mxCell>
        <mxCell id="oGvwPSa7rUXXweESWLWe-24" value="(1.1)" style="text;html=1;align=center;verticalAlign=middle;whiteSpace=wrap;rounded=0;" parent="1" vertex="1">
          <mxGeometry x="440" y="545" width="60" height="30" as="geometry" />
        </mxCell>
        <mxCell id="j0QYSwoIqu1QwtUw-Y4--6" style="edgeStyle=orthogonalEdgeStyle;rounded=0;orthogonalLoop=1;jettySize=auto;html=1;" parent="1" source="j0QYSwoIqu1QwtUw-Y4--1" edge="1">
          <mxGeometry relative="1" as="geometry">
            <mxPoint x="710" y="340" as="targetPoint" />
          </mxGeometry>
        </mxCell>
        <mxCell id="j0QYSwoIqu1QwtUw-Y4--1" value="Existe" style="shape=rhombus;perimeter=rhombusPerimeter;whiteSpace=wrap;html=1;align=center;" parent="1" vertex="1">
          <mxGeometry x="560" y="310" width="110" height="60" as="geometry" />
        </mxCell>
        <mxCell id="j0QYSwoIqu1QwtUw-Y4--2" value="" style="shape=waypoint;sketch=0;size=6;pointerEvents=1;points=[];fillColor=none;resizable=0;rotatable=0;perimeter=centerPerimeter;snapToPoint=1;" parent="1" vertex="1">
          <mxGeometry x="240" y="805" width="20" height="20" as="geometry" />
        </mxCell>
        <mxCell id="j0QYSwoIqu1QwtUw-Y4--13" style="edgeStyle=orthogonalEdgeStyle;rounded=0;orthogonalLoop=1;jettySize=auto;html=1;exitX=0.5;exitY=1;exitDx=0;exitDy=0;" parent="1" source="oGvwPSa7rUXXweESWLWe-10" target="oGvwPSa7rUXXweESWLWe-10" edge="1">
          <mxGeometry relative="1" as="geometry" />
        </mxCell>
        <mxCell id="j0QYSwoIqu1QwtUw-Y4--14" value="(1.N)" style="text;html=1;align=center;verticalAlign=middle;whiteSpace=wrap;rounded=0;" parent="1" vertex="1">
          <mxGeometry x="470" y="290" width="60" height="30" as="geometry" />
        </mxCell>
        <mxCell id="j0QYSwoIqu1QwtUw-Y4--15" value="(0.1)" style="text;html=1;align=center;verticalAlign=middle;whiteSpace=wrap;rounded=0;" parent="1" vertex="1">
          <mxGeometry x="650" y="300" width="60" height="30" as="geometry" />
        </mxCell>
        <mxCell id="j0QYSwoIqu1QwtUw-Y4--103" value="" style="edgeStyle=orthogonalEdgeStyle;rounded=0;orthogonalLoop=1;jettySize=auto;html=1;" parent="1" source="j0QYSwoIqu1QwtUw-Y4--101" target="j0QYSwoIqu1QwtUw-Y4--102" edge="1">
          <mxGeometry relative="1" as="geometry" />
        </mxCell>
        <mxCell id="j0QYSwoIqu1QwtUw-Y4--16" value="Contiene" style="shape=associativeEntity;whiteSpace=wrap;html=1;align=center;" parent="1" vertex="1">
          <mxGeometry x="330" y="200" width="130" height="60" as="geometry" />
        </mxCell>
        <mxCell id="j0QYSwoIqu1QwtUw-Y4--17" value="Item" style="text;strokeColor=none;fillColor=none;spacingLeft=4;spacingRight=4;overflow=hidden;rotatable=0;points=[[0,0.5],[1,0.5]];portConstraint=eastwest;fontSize=12;whiteSpace=wrap;html=1;" parent="1" vertex="1">
          <mxGeometry x="330" y="180" width="40" height="30" as="geometry" />
        </mxCell>
        <mxCell id="j0QYSwoIqu1QwtUw-Y4--18" value="(1.N)" style="text;html=1;align=center;verticalAlign=middle;whiteSpace=wrap;rounded=0;" parent="1" vertex="1">
          <mxGeometry x="390" y="180" width="60" height="30" as="geometry" />
        </mxCell>
        <mxCell id="j0QYSwoIqu1QwtUw-Y4--19" value="(1.1)" style="text;html=1;align=center;verticalAlign=middle;whiteSpace=wrap;rounded=0;" parent="1" vertex="1">
          <mxGeometry x="400" y="290" width="60" height="30" as="geometry" />
        </mxCell>
        <mxCell id="j0QYSwoIqu1QwtUw-Y4--37" value="" style="edgeStyle=orthogonalEdgeStyle;rounded=0;orthogonalLoop=1;jettySize=auto;html=1;" parent="1" target="j0QYSwoIqu1QwtUw-Y4--36" edge="1">
          <mxGeometry relative="1" as="geometry">
            <mxPoint x="184.99976211021226" y="750.0588235294117" as="sourcePoint" />
          </mxGeometry>
        </mxCell>
        <mxCell id="j0QYSwoIqu1QwtUw-Y4--31" style="edgeStyle=orthogonalEdgeStyle;rounded=0;orthogonalLoop=1;jettySize=auto;html=1;entryX=0;entryY=0.5;entryDx=0;entryDy=0;" parent="1" target="j0QYSwoIqu1QwtUw-Y4--45" edge="1">
          <mxGeometry relative="1" as="geometry">
            <mxPoint x="30.000000000000227" y="572" as="targetPoint" />
            <mxPoint y="382" as="sourcePoint" />
            <Array as="points">
              <mxPoint x="20" y="382" />
            </Array>
          </mxGeometry>
        </mxCell>
        <mxCell id="j0QYSwoIqu1QwtUw-Y4--109" style="edgeStyle=orthogonalEdgeStyle;rounded=0;orthogonalLoop=1;jettySize=auto;html=1;exitX=0;exitY=0.5;exitDx=0;exitDy=0;entryX=0.03;entryY=0.775;entryDx=0;entryDy=0;entryPerimeter=0;" parent="1" source="j0QYSwoIqu1QwtUw-Y4--34" target="j0QYSwoIqu1QwtUw-Y4--36" edge="1">
          <mxGeometry relative="1" as="geometry">
            <mxPoint x="160" y="830" as="targetPoint" />
          </mxGeometry>
        </mxCell>
        <mxCell id="j0QYSwoIqu1QwtUw-Y4--34" value="Calle" style="ellipse;whiteSpace=wrap;html=1;align=center;dashed=1;" parent="1" vertex="1">
          <mxGeometry x="160" y="705" width="100" height="40" as="geometry" />
        </mxCell>
        <mxCell id="j0QYSwoIqu1QwtUw-Y4--35" value="Localidad" style="ellipse;whiteSpace=wrap;html=1;align=center;dashed=1;" parent="1" vertex="1">
          <mxGeometry x="160" y="745" width="100" height="40" as="geometry" />
        </mxCell>
        <mxCell id="j0QYSwoIqu1QwtUw-Y4--36" value="Provincia" style="ellipse;whiteSpace=wrap;html=1;align=center;dashed=1;" parent="1" vertex="1">
          <mxGeometry x="160" y="785" width="100" height="40" as="geometry" />
        </mxCell>
        <mxCell id="j0QYSwoIqu1QwtUw-Y4--42" value="Nombre" style="ellipse;whiteSpace=wrap;html=1;align=center;" parent="1" vertex="1">
          <mxGeometry x="20" y="692" width="100" height="40" as="geometry" />
        </mxCell>
        <mxCell id="j0QYSwoIqu1QwtUw-Y4--108" value="" style="edgeStyle=orthogonalEdgeStyle;rounded=0;orthogonalLoop=1;jettySize=auto;html=1;" parent="1" source="j0QYSwoIqu1QwtUw-Y4--43" edge="1">
          <mxGeometry relative="1" as="geometry">
            <mxPoint x="150" y="762" as="targetPoint" />
          </mxGeometry>
        </mxCell>
        <mxCell id="j0QYSwoIqu1QwtUw-Y4--43" value="DirecciÃ³n" style="ellipse;whiteSpace=wrap;html=1;align=center;" parent="1" vertex="1">
          <mxGeometry x="20" y="742" width="100" height="40" as="geometry" />
        </mxCell>
        <mxCell id="j0QYSwoIqu1QwtUw-Y4--44" value="TelÃ©fono" style="ellipse;whiteSpace=wrap;html=1;align=center;" parent="1" vertex="1">
          <mxGeometry x="20" y="792" width="100" height="40" as="geometry" />
        </mxCell>
        <mxCell id="j0QYSwoIqu1QwtUw-Y4--45" value="Correo" style="ellipse;whiteSpace=wrap;html=1;align=center;" parent="1" vertex="1">
          <mxGeometry x="20" y="837" width="100" height="40" as="geometry" />
        </mxCell>
        <mxCell id="j0QYSwoIqu1QwtUw-Y4--60" value="" style="edgeStyle=orthogonalEdgeStyle;rounded=0;orthogonalLoop=1;jettySize=auto;html=1;" parent="1" source="j0QYSwoIqu1QwtUw-Y4--47" target="j0QYSwoIqu1QwtUw-Y4--52" edge="1">
          <mxGeometry relative="1" as="geometry" />
        </mxCell>
        <mxCell id="j0QYSwoIqu1QwtUw-Y4--61" style="edgeStyle=orthogonalEdgeStyle;rounded=0;orthogonalLoop=1;jettySize=auto;html=1;exitX=0.99;exitY=0.97;exitDx=0;exitDy=0;exitPerimeter=0;entryX=0.25;entryY=0;entryDx=0;entryDy=0;" parent="1" source="j0QYSwoIqu1QwtUw-Y4--47" target="j0QYSwoIqu1QwtUw-Y4--50" edge="1">
          <mxGeometry relative="1" as="geometry" />
        </mxCell>
        <mxCell id="j0QYSwoIqu1QwtUw-Y4--47" value="ID" style="strokeWidth=2;html=1;shape=mxgraph.flowchart.extract_or_measurement;whiteSpace=wrap;" parent="1" vertex="1">
          <mxGeometry x="40" y="392" width="95" height="60" as="geometry" />
        </mxCell>
        <mxCell id="j0QYSwoIqu1QwtUw-Y4--49" value="P fÃ­sica" style="rounded=1;arcSize=10;whiteSpace=wrap;html=1;align=center;" parent="1" vertex="1">
          <mxGeometry x="30" y="477" width="70" height="40" as="geometry" />
        </mxCell>
        <mxCell id="j0QYSwoIqu1QwtUw-Y4--50" value="P jurÃ­dica" style="rounded=1;arcSize=10;whiteSpace=wrap;html=1;align=center;" parent="1" vertex="1">
          <mxGeometry x="135" y="480" width="70" height="40" as="geometry" />
        </mxCell>
        <mxCell id="j0QYSwoIqu1QwtUw-Y4--52" value="DNI" style="ellipse;whiteSpace=wrap;html=1;align=center;" parent="1" vertex="1">
          <mxGeometry x="20" y="532" width="80" height="40" as="geometry" />
        </mxCell>
        <mxCell id="j0QYSwoIqu1QwtUw-Y4--54" value="CUIL" style="ellipse;whiteSpace=wrap;html=1;align=center;" parent="1" vertex="1">
          <mxGeometry x="20" y="577" width="80" height="40" as="geometry" />
        </mxCell>
        <mxCell id="j0QYSwoIqu1QwtUw-Y4--56" value="CUIT" style="ellipse;whiteSpace=wrap;html=1;align=center;" parent="1" vertex="1">
          <mxGeometry x="25" y="622" width="80" height="40" as="geometry" />
        </mxCell>
        <mxCell id="j0QYSwoIqu1QwtUw-Y4--57" value="CUIT" style="ellipse;whiteSpace=wrap;html=1;align=center;" parent="1" vertex="1">
          <mxGeometry x="150" y="535" width="80" height="40" as="geometry" />
        </mxCell>
        <mxCell id="j0QYSwoIqu1QwtUw-Y4--62" value="Cantidad" style="ellipse;whiteSpace=wrap;html=1;align=center;" parent="1" vertex="1">
          <mxGeometry x="760" y="385" width="100" height="40" as="geometry" />
        </mxCell>
        <mxCell id="j0QYSwoIqu1QwtUw-Y4--63" value="Valor" style="ellipse;whiteSpace=wrap;html=1;align=center;" parent="1" vertex="1">
          <mxGeometry x="490" y="50" width="100" height="40" as="geometry" />
        </mxCell>
        <mxCell id="j0QYSwoIqu1QwtUw-Y4--64" value="Fecha" style="ellipse;whiteSpace=wrap;html=1;align=center;" parent="1" vertex="1">
          <mxGeometry x="500" y="100" width="100" height="40" as="geometry" />
        </mxCell>
        <mxCell id="j0QYSwoIqu1QwtUw-Y4--67" style="edgeStyle=orthogonalEdgeStyle;rounded=0;orthogonalLoop=1;jettySize=auto;html=1;" parent="1" edge="1">
          <mxGeometry relative="1" as="geometry">
            <mxPoint x="430" y="50" as="sourcePoint" />
            <mxPoint x="490" y="60" as="targetPoint" />
            <Array as="points">
              <mxPoint x="470" y="50" />
              <mxPoint x="470" y="61" />
              <mxPoint x="490" y="61" />
            </Array>
          </mxGeometry>
        </mxCell>
        <mxCell id="j0QYSwoIqu1QwtUw-Y4--69" value="AÃ±o Public" style="ellipse;whiteSpace=wrap;html=1;align=center;" parent="1" vertex="1">
          <mxGeometry x="177.5" y="210" width="100" height="40" as="geometry" />
        </mxCell>
        <mxCell id="j0QYSwoIqu1QwtUw-Y4--70" value="Editorial" style="ellipse;whiteSpace=wrap;html=1;align=center;" parent="1" vertex="1">
          <mxGeometry x="177.5" y="248" width="100" height="40" as="geometry" />
        </mxCell>
        <mxCell id="j0QYSwoIqu1QwtUw-Y4--71" value="Valor" style="ellipse;whiteSpace=wrap;html=1;align=center;" parent="1" vertex="1">
          <mxGeometry x="177.5" y="293" width="100" height="40" as="geometry" />
        </mxCell>
        <mxCell id="j0QYSwoIqu1QwtUw-Y4--72" value="Autor" style="ellipse;whiteSpace=wrap;html=1;align=center;" parent="1" vertex="1">
          <mxGeometry x="177.5" y="342" width="100" height="40" as="geometry" />
        </mxCell>
        <mxCell id="j0QYSwoIqu1QwtUw-Y4--73" value="ISBN" style="ellipse;whiteSpace=wrap;html=1;align=center;" parent="1" vertex="1">
          <mxGeometry x="182.5" y="170" width="100" height="40" as="geometry" />
        </mxCell>
        <mxCell id="j0QYSwoIqu1QwtUw-Y4--77" style="edgeStyle=orthogonalEdgeStyle;rounded=0;orthogonalLoop=1;jettySize=auto;html=1;entryX=0;entryY=0.75;entryDx=0;entryDy=0;" parent="1" source="j0QYSwoIqu1QwtUw-Y4--74" target="oGvwPSa7rUXXweESWLWe-4" edge="1">
          <mxGeometry relative="1" as="geometry" />
        </mxCell>
        <mxCell id="j0QYSwoIqu1QwtUw-Y4--74" value="CategorÃ­a" style="ellipse;whiteSpace=wrap;html=1;align=center;" parent="1" vertex="1">
          <mxGeometry x="177.5" y="130" width="100" height="40" as="geometry" />
        </mxCell>
        <mxCell id="j0QYSwoIqu1QwtUw-Y4--75" value="TÃ­tulo" style="ellipse;whiteSpace=wrap;html=1;align=center;" parent="1" vertex="1">
          <mxGeometry x="177.5" y="80" width="100" height="40" as="geometry" />
        </mxCell>
        <mxCell id="j0QYSwoIqu1QwtUw-Y4--76" style="edgeStyle=orthogonalEdgeStyle;rounded=0;orthogonalLoop=1;jettySize=auto;html=1;entryX=0.979;entryY=0.744;entryDx=0;entryDy=0;entryPerimeter=0;exitX=0.94;exitY=0.742;exitDx=0;exitDy=0;exitPerimeter=0;" parent="1" source="j0QYSwoIqu1QwtUw-Y4--72" target="j0QYSwoIqu1QwtUw-Y4--75" edge="1">
          <mxGeometry relative="1" as="geometry">
            <mxPoint x="293" y="160" as="sourcePoint" />
          </mxGeometry>
        </mxCell>
        <mxCell id="j0QYSwoIqu1QwtUw-Y4--78" value="Nombre_contacto" style="ellipse;whiteSpace=wrap;html=1;align=center;" parent="1" vertex="1">
          <mxGeometry x="440" y="715" width="100" height="40" as="geometry" />
        </mxCell>
        <mxCell id="j0QYSwoIqu1QwtUw-Y4--85" style="edgeStyle=orthogonalEdgeStyle;rounded=0;orthogonalLoop=1;jettySize=auto;html=1;exitX=1;exitY=1;exitDx=0;exitDy=0;entryX=0;entryY=0.5;entryDx=0;entryDy=0;" parent="1" source="j0QYSwoIqu1QwtUw-Y4--79" target="j0QYSwoIqu1QwtUw-Y4--82" edge="1">
          <mxGeometry relative="1" as="geometry" />
        </mxCell>
        <mxCell id="j0QYSwoIqu1QwtUw-Y4--79" value="TelÃ©fono" style="ellipse;whiteSpace=wrap;html=1;align=center;" parent="1" vertex="1">
          <mxGeometry x="440" y="660" width="100" height="40" as="geometry" />
        </mxCell>
        <mxCell id="j0QYSwoIqu1QwtUw-Y4--80" value="e-mail" style="ellipse;whiteSpace=wrap;html=1;align=center;" parent="1" vertex="1">
          <mxGeometry x="450" y="785" width="100" height="40" as="geometry" />
        </mxCell>
        <mxCell id="j0QYSwoIqu1QwtUw-Y4--81" value="Telefono_1" style="ellipse;whiteSpace=wrap;html=1;align=center;dashed=1;" parent="1" vertex="1">
          <mxGeometry x="570" y="645" width="100" height="40" as="geometry" />
        </mxCell>
        <mxCell id="j0QYSwoIqu1QwtUw-Y4--82" value="Telefono_2" style="ellipse;whiteSpace=wrap;html=1;align=center;dashed=1;" parent="1" vertex="1">
          <mxGeometry x="570" y="695" width="100" height="40" as="geometry" />
        </mxCell>
        <mxCell id="j0QYSwoIqu1QwtUw-Y4--84" style="edgeStyle=orthogonalEdgeStyle;rounded=0;orthogonalLoop=1;jettySize=auto;html=1;entryX=0.051;entryY=0.856;entryDx=0;entryDy=0;entryPerimeter=0;" parent="1" source="j0QYSwoIqu1QwtUw-Y4--79" target="j0QYSwoIqu1QwtUw-Y4--81" edge="1">
          <mxGeometry relative="1" as="geometry" />
        </mxCell>
        <mxCell id="j0QYSwoIqu1QwtUw-Y4--86" value="CÃ³digo del Cliente" style="ellipse;whiteSpace=wrap;html=1;align=center;fontStyle=4;" parent="1" vertex="1">
          <mxGeometry x="75" y="285" width="100" height="45" as="geometry" />
        </mxCell>
        <mxCell id="j0QYSwoIqu1QwtUw-Y4--93" style="edgeStyle=orthogonalEdgeStyle;rounded=0;orthogonalLoop=1;jettySize=auto;html=1;entryX=1;entryY=0.75;entryDx=0;entryDy=0;" parent="1" source="j0QYSwoIqu1QwtUw-Y4--92" target="oGvwPSa7rUXXweESWLWe-2" edge="1">
          <mxGeometry relative="1" as="geometry">
            <Array as="points">
              <mxPoint x="510" y="615" />
              <mxPoint x="480" y="615" />
              <mxPoint x="480" y="625" />
            </Array>
          </mxGeometry>
        </mxCell>
        <mxCell id="j0QYSwoIqu1QwtUw-Y4--92" value="CÃ³digo Editorial" style="ellipse;whiteSpace=wrap;html=1;align=center;fontStyle=4;" parent="1" vertex="1">
          <mxGeometry x="470" y="565" width="100" height="45" as="geometry" />
        </mxCell>
        <mxCell id="j0QYSwoIqu1QwtUw-Y4--95" style="edgeStyle=orthogonalEdgeStyle;rounded=0;orthogonalLoop=1;jettySize=auto;html=1;entryX=1;entryY=0.25;entryDx=0;entryDy=0;" parent="1" source="j0QYSwoIqu1QwtUw-Y4--94" target="oGvwPSa7rUXXweESWLWe-3" edge="1">
          <mxGeometry relative="1" as="geometry" />
        </mxCell>
        <mxCell id="j0QYSwoIqu1QwtUw-Y4--94" value="CÃ³digo del Cliente" style="ellipse;whiteSpace=wrap;html=1;align=center;fontStyle=4;" parent="1" vertex="1">
          <mxGeometry x="420" y="-35" width="100" height="45" as="geometry" />
        </mxCell>
        <mxCell id="j0QYSwoIqu1QwtUw-Y4--97" style="edgeStyle=orthogonalEdgeStyle;rounded=0;orthogonalLoop=1;jettySize=auto;html=1;entryX=0.25;entryY=1;entryDx=0;entryDy=0;" parent="1" source="j0QYSwoIqu1QwtUw-Y4--96" target="oGvwPSa7rUXXweESWLWe-4" edge="1">
          <mxGeometry relative="1" as="geometry" />
        </mxCell>
        <mxCell id="j0QYSwoIqu1QwtUw-Y4--96" value="CÃ³digo Editorial" style="ellipse;whiteSpace=wrap;html=1;align=center;fontStyle=4;" parent="1" vertex="1">
          <mxGeometry x="220" y="382" width="100" height="45" as="geometry" />
        </mxCell>
        <mxCell id="j0QYSwoIqu1QwtUw-Y4--99" style="edgeStyle=orthogonalEdgeStyle;rounded=0;orthogonalLoop=1;jettySize=auto;html=1;entryX=0;entryY=1;entryDx=0;entryDy=0;" parent="1" target="oGvwPSa7rUXXweESWLWe-5" edge="1">
          <mxGeometry relative="1" as="geometry">
            <mxPoint x="760" y="410" as="sourcePoint" />
            <Array as="points">
              <mxPoint x="720" y="410" />
            </Array>
          </mxGeometry>
        </mxCell>
        <mxCell id="j0QYSwoIqu1QwtUw-Y4--111" style="edgeStyle=orthogonalEdgeStyle;rounded=0;orthogonalLoop=1;jettySize=auto;html=1;" parent="1" source="j0QYSwoIqu1QwtUw-Y4--98" edge="1">
          <mxGeometry relative="1" as="geometry">
            <mxPoint x="720" y="420" as="targetPoint" />
            <Array as="points">
              <mxPoint x="720" y="463" />
            </Array>
          </mxGeometry>
        </mxCell>
        <mxCell id="j0QYSwoIqu1QwtUw-Y4--98" value="CÃ³digo Editorial" style="ellipse;whiteSpace=wrap;html=1;align=center;fontStyle=4;" parent="1" vertex="1">
          <mxGeometry x="760" y="440" width="100" height="45" as="geometry" />
        </mxCell>
        <mxCell id="j0QYSwoIqu1QwtUw-Y4--100" value="CÃ³dio del Pedi&lt;span style=&quot;color: rgba(0, 0, 0, 0); font-family: monospace; font-size: 0px; text-align: start; text-wrap-mode: nowrap;&quot;&gt;%3CmxGraphModel%3E%3Croot%3E%3CmxCell%20id%3D%220%22%2F%3E%3CmxCell%20id%3D%221%22%20parent%3D%220%22%2F%3E%3CmxCell%20id%3D%222%22%20value%3D%22Attribute%22%20style%3D%22ellipse%3BwhiteSpace%3Dwrap%3Bhtml%3D1%3Balign%3Dcenter%3B%22%20vertex%3D%221%22%20parent%3D%221%22%3E%3CmxGeometry%20x%3D%22490%22%20y%3D%22170%22%20width%3D%22100%22%20height%3D%2240%22%20as%3D%22geometry%22%2F%3E%3C%2FmxCell%3E%3C%2Froot%3E%3C%2FmxGraphModel%3E&lt;/span&gt;do" style="ellipse;whiteSpace=wrap;html=1;align=center;fontStyle=4;" parent="1" vertex="1">
          <mxGeometry x="480" y="10" width="100" height="40" as="geometry" />
        </mxCell>
        <mxCell id="j0QYSwoIqu1QwtUw-Y4--102" value="Valor" style="ellipse;whiteSpace=wrap;html=1;align=center;" parent="1" vertex="1">
          <mxGeometry x="510" y="262.5" width="100" height="40" as="geometry" />
        </mxCell>
        <mxCell id="j0QYSwoIqu1QwtUw-Y4--104" style="edgeStyle=orthogonalEdgeStyle;rounded=0;orthogonalLoop=1;jettySize=auto;html=1;exitX=0;exitY=1;exitDx=0;exitDy=0;entryX=0.877;entryY=0.383;entryDx=0;entryDy=0;entryPerimeter=0;" parent="1" source="j0QYSwoIqu1QwtUw-Y4--101" target="j0QYSwoIqu1QwtUw-Y4--16" edge="1">
          <mxGeometry relative="1" as="geometry">
            <Array as="points">
              <mxPoint x="480" y="254" />
              <mxPoint x="480" y="220" />
              <mxPoint x="444" y="220" />
            </Array>
          </mxGeometry>
        </mxCell>
        <mxCell id="j0QYSwoIqu1QwtUw-Y4--105" value="CÃ³dio del Pedi&lt;span style=&quot;color: rgba(0, 0, 0, 0); font-family: monospace; font-size: 0px; text-align: start; text-wrap-mode: nowrap;&quot;&gt;%3CmxGraphModel%3E%3Croot%3E%3CmxCell%20id%3D%220%22%2F%3E%3CmxCell%20id%3D%221%22%20parent%3D%220%22%2F%3E%3CmxCell%20id%3D%222%22%20value%3D%22Attribute%22%20style%3D%22ellipse%3BwhiteSpace%3Dwrap%3Bhtml%3D1%3Balign%3Dcenter%3B%22%20vertex%3D%221%22%20parent%3D%221%22%3E%3CmxGeometry%20x%3D%22490%22%20y%3D%22170%22%20width%3D%22100%22%20height%3D%2240%22%20as%3D%22geometry%22%2F%3E%3C%2FmxCell%3E%3C%2Froot%3E%3C%2FmxGraphModel%3E&lt;/span&gt;do" style="ellipse;whiteSpace=wrap;html=1;align=center;fontStyle=4;" parent="1" vertex="1">
          <mxGeometry x="490" y="157.5" width="100" height="40" as="geometry" />
        </mxCell>
        <mxCell id="j0QYSwoIqu1QwtUw-Y4--107" value="CÃ³digo Libro" style="ellipse;whiteSpace=wrap;html=1;align=center;fontStyle=4;" parent="1" vertex="1">
          <mxGeometry x="220" y="432" width="100" height="45" as="geometry" />
        </mxCell>
        <mxCell id="j0QYSwoIqu1QwtUw-Y4--112" style="edgeStyle=orthogonalEdgeStyle;rounded=0;orthogonalLoop=1;jettySize=auto;html=1;" parent="1" source="j0QYSwoIqu1QwtUw-Y4--110" edge="1">
          <mxGeometry relative="1" as="geometry">
            <mxPoint x="720" y="370" as="targetPoint" />
            <Array as="points">
              <mxPoint x="720" y="518" />
            </Array>
          </mxGeometry>
        </mxCell>
        <mxCell id="j0QYSwoIqu1QwtUw-Y4--110" value="CÃ³digo Libro" style="ellipse;whiteSpace=wrap;html=1;align=center;fontStyle=4;" parent="1" vertex="1">
          <mxGeometry x="760" y="495" width="100" height="45" as="geometry" />
        </mxCell>
        <mxCell id="j0QYSwoIqu1QwtUw-Y4--113" style="edgeStyle=orthogonalEdgeStyle;rounded=0;orthogonalLoop=1;jettySize=auto;html=1;entryX=0.4;entryY=1;entryDx=0;entryDy=0;entryPerimeter=0;" parent="1" source="j0QYSwoIqu1QwtUw-Y4--107" target="oGvwPSa7rUXXweESWLWe-4" edge="1">
          <mxGeometry relative="1" as="geometry" />
        </mxCell>
        <mxCell id="j0QYSwoIqu1QwtUw-Y4--114" value="CÃ³digo Libro" style="ellipse;whiteSpace=wrap;html=1;align=center;fontStyle=4;" parent="1" vertex="1">
          <mxGeometry x="500" y="197.5" width="100" height="45" as="geometry" />
        </mxCell>
        <mxCell id="j0QYSwoIqu1QwtUw-Y4--101" value="Cantidad" style="ellipse;whiteSpace=wrap;html=1;align=center;" parent="1" vertex="1">
          <mxGeometry x="510" y="227.5" width="100" height="40" as="geometry" />
        </mxCell>
      </root>
    </mxGraphModel>
  </diagram>
</mxfile>
